<?xml version="1.0" encoding="utf-8"?>
<!-- Generator: Adobe Illustrator 21.1.0, SVG Export Plug-In . SVG Version: 6.00 Build 0)  -->
<svg version="1.1" id="Layer_1" xmlns="http://www.w3.org/2000/svg" xmlns:xlink="http://www.w3.org/1999/xlink" x="0px" y="0px"
	 viewBox="0 0 486 142.6" style="enable-background:new 0 0 486 142.6;" xml:space="preserve">
<style type="text/css">
	.st0{fill:#141414;}
	.st1{enable-background:new    ;}
	.st2{fill:#F1F2F2;}
	.st3{fill:#FFFFFF;}
	.st4{fill:#A7A9AC;}
	.st5{fill:#E4215A;}
</style>
<title>Asset 1</title>
<g id="Layer_2">
	<g id="Layer_1-2">
		<polygon class="st0" points="486,128.6 0,142.6 11.1,0 478,15.6 		"/>
		<g class="st1">
			<path class="st2" d="M37,59.3c2.6-4.3,6.5-6.4,11.6-6.4C59.5,53.4,65,60.5,65,74.5c0,13.7-6.4,20.6-19.1,20.8
				c-12.8,0.1-19.2-6.1-19.2-18.4v-35h5.2c3.4,0,5.1,1.8,5.1,5.2V59.3z M37,74c-0.1,8.3,2.7,12.5,8.6,12.5c5.9,0,8.8-4.2,8.8-12.5
				c-0.2-7.9-3.1-11.8-8.7-11.8C40.1,62.2,37.3,66.1,37,74z"/>
			<path class="st2" d="M106.6,74.3c0,14.1-6.3,21.3-18.7,21.3s-18.6-7.1-18.6-21.3C69.3,60,75.5,53,87.9,53S106.6,60,106.6,74.3z
				 M79.8,74.3c0.1,8,2.8,12,8.1,12c5.3,0,7.9-4.2,8-12.3c0-8-2.6-12-7.9-12C82.5,62.1,79.8,66.2,79.8,74.3z"/>
			<path class="st2" d="M148.6,74.3c0,14.1-6.3,21.3-18.7,21.3s-18.6-7.1-18.6-21.3c0-14.3,6.2-21.3,18.6-21.3S148.6,60,148.6,74.3z
				 M121.8,74.3c0.1,8,2.8,12,8.1,12c5.3,0,7.9-4.2,8-12.3c0-8-2.6-12-7.9-12C124.5,62.1,121.8,66.2,121.8,74.3z"/>
			<path class="st2" d="M163.9,46.9v22.7l12.7-14.6H189l-14.2,15.2l14.4,24.4h-12.4l-7.3-13.5c-1.3-2.3-2.6-3.5-4-3.5
				c-1.1,0.2-1.6,0.9-1.6,2v15h-10.3V41.9h5.4C161.7,41.9,163.9,44.2,163.9,46.9z"/>
		</g>
		<g class="st1">
			<path class="st3" d="M201.7,86.5v8.1H193v-5.1c0-2,1.1-3,3.3-3H201.7z"/>
		</g>
		<g class="st1">
			<path class="st4" d="M226.8,101.3c0.3,0,0.9-0.1,1.6-0.2v4.4c0,4-4.9,3.8-8.9,2.9c-5.3-1.4-7.8-4.3-7.8-8.5
				c0-1.6-0.1-6.1-0.2-13.9c0-6.4-2.1-9.5-8.1-9.2H202v-7.6h1.2c6.5,0,8.3-2.4,8.3-9.1V49.5c-0.5-9.2,3.7-12.3,12.4-12.3h4.4v7.5
				h-1.6c-5.3,0-6.4,1.6-6.4,7.3v10c0,7.3-1.7,9.7-7.4,10.9c7.8,2.4,7.8,5,7.7,18.6C220.8,99.8,220.5,101.3,226.8,101.3z"/>
		</g>
		<g class="st1">
			<path class="st5" d="M241.2,46.9v47.7h-10.3V41.9h5.4C238.9,41.9,241.2,44.2,241.2,46.9z"/>
			<path class="st5" d="M253.9,41.9c3.4,0,5,1.7,5,5v3h-10.3v-8.1H253.9z M253.9,53.6c3.3,0,5,1.6,5,5v36.1h-10.3V53.6H253.9z"/>
			<path class="st5" d="M275,59.3c2.6-4.3,6.5-6.4,11.6-6.4c10.9,0.4,16.4,7.5,16.4,21.5c0,13.7-6.4,20.6-19.1,20.8
				c-12.8,0.1-19.2-6.1-19.2-18.4v-35h5.2c3.4,0,5.1,1.8,5.1,5.2V59.3z M275,74c-0.1,8.3,2.7,12.5,8.6,12.5c5.9,0,8.8-4.2,8.8-12.5
				c-0.2-7.9-3.1-11.8-8.7-11.8C278.2,62.2,275.3,66.1,275,74z"/>
		</g>
		<g class="st1">
			<path class="st4" d="M306.1,91.6C306,78,306.1,75.4,313.8,73c-5.7-1.2-7.4-3.6-7.4-10.9V52c0-5.7-1.1-7.3-6.4-7.3h-1.7v-7.5h4.4
				c8.7,0,13,3,12.4,12.3v10.6c0,6.7,1.8,9.1,8.3,9.1h1.2v7.6h-1.4c-6.1-0.2-8.1,2.9-8.1,9.2c-0.1,7.8-0.2,12.3-0.2,13.9
				c0.1,4.3-2.5,7.1-7.8,8.5c-4,0.9-8.9,1.2-8.9-2.9v-4.4c0.8,0.1,1.4,0.2,1.7,0.2C306.4,101.3,306,99.8,306.1,91.6z"/>
		</g>
		<g class="st1">
			<path class="st2" d="M327.2,73.5c0.3-13.3,7.4-19.9,21.1-19.9h1.5v10.7h-3.5c-5.7,0-8.6,3-8.6,9v21.3h-10.5V73.5z"/>
			<path class="st2" d="M365.3,64.3h-10.3c1.2-7.6,6.6-11.3,16.1-11.3c11.3,0,17.1,3.7,17.3,11.3v14c0,11.3-6.8,16.4-17.9,17.1
				c-9.9,0.8-16.7-3.8-16.7-12.9c0.2-9.9,7.4-12.5,17.8-13.5c4.4-0.5,6.7-1.9,6.7-4.1c-0.2-2.3-2.4-3.5-6.7-3.5
				C367.8,61.4,365.8,62.4,365.3,64.3z M378.3,77.8V74c-2.4,1-5.2,1.9-8.2,2.5c-4.1,0.8-6.2,2.7-6.2,5.7c0.2,3.3,1.9,4.8,5.2,4.8
				C374.8,87,378.3,83.6,378.3,77.8z"/>
			<path class="st2" d="M393.3,73.5c0.3-13.3,7.4-19.9,21.1-19.9h1.5v10.7h-3.5c-5.7,0-8.6,3-8.6,9v21.3h-10.5V73.5z"/>
			<path class="st2" d="M427.8,101.9c5.7,0,7.7-2.8,6.1-8.2l-14-40.1h11.7l8.1,28.5l7.1-24.8c0.6-2.4,2.3-3.6,4.9-3.6h7.2l-16.2,48
				c-2.5,6.8-5,9.1-13.5,9.1c-2.6,0-4-0.1-4.3-0.3v-8.5H427.8z"/>
		</g>
	</g>
</g>
</svg>
